<svg id="Layer_1" data-name="Layer 1" xmlns="http://www.w3.org/2000/svg" viewBox="0 0 85.04 85.04"><defs><style>.cls-1{fill:#262626;}</style></defs><path class="cls-1" d="M61.41,70.14a7,7,0,0,1-1.94.33c-1.94,0-3.24-1.56-3.24-3.88a35.24,35.24,0,0,1,1-7.26,38.07,38.07,0,0,0,1-7.78c0-4.65-2.81-8-8-9.83C56.31,40.45,66.15,37,66.15,27.55s-9-13.4-17.88-13.4H28.17l-1.34,3.12h9.3L17.32,70H9.08L8,73.11H34.73L35.84,70H26.65l9.76-27.12H39c8.82,0,10,2.94,10,6.12a52.56,52.56,0,0,1-.7,6.41L48,57.3A49.28,49.28,0,0,0,47.19,64c0,6.22,3.9,9.64,11,9.64A13.87,13.87,0,0,0,62.55,73l.76-.38-.89-2.89ZM45.53,17.27h2.66c5.28,0,8.44,2.95,8.44,7.88,0,5.77-2.11,10.06-6.26,12.76-1.34.85-4.49,1.84-9,1.84H37.45Z"/></svg>